<svg width="63" height="62" viewBox="0 0 63 62" fill="none" xmlns="http://www.w3.org/2000/svg">
<path d="M4.375 49.4062H11.2385C11.4673 50.7605 12.1683 51.99 13.2172 52.8766C14.2662 53.7632 15.5952 54.2496 16.9687 54.2496C18.3421 54.2496 19.6712 53.7632 20.7201 52.8766C21.7691 51.99 22.4701 50.7605 22.6989 49.4062H44.176C44.4046 50.7606 45.1056 51.9902 46.1545 52.877C47.2035 53.7637 48.5326 54.2502 49.9062 54.2502C51.2797 54.2502 52.6089 53.7637 53.6578 52.877C54.7068 51.9902 55.4078 50.7606 55.6364 49.4062H58.625C58.8819 49.4062 59.1283 49.3042 59.31 49.1225C59.4917 48.9408 59.5938 48.6944 59.5938 48.4375V36.8125C59.5937 36.6333 59.544 36.4575 59.45 36.3049L51.7 23.7111C51.6133 23.5702 51.492 23.4538 51.3476 23.3731C51.2031 23.2924 51.0404 23.25 50.875 23.25H39.25V8.71875C39.25 8.46182 39.1479 8.21542 38.9663 8.03374C38.7846 7.85206 38.5382 7.75 38.2812 7.75H4.375C4.11807 7.75 3.87167 7.85206 3.68999 8.03374C3.50831 8.21542 3.40625 8.46182 3.40625 8.71875V48.4375C3.40625 48.6944 3.50831 48.9408 3.68999 49.1225C3.87167 49.3042 4.11807 49.4062 4.375 49.4062ZM16.9688 52.3125C16.2023 52.3125 15.4532 52.0852 14.8159 51.6594C14.1787 51.2337 13.682 50.6285 13.3887 49.9204C13.0954 49.2123 13.0187 48.4332 13.1682 47.6815C13.3177 46.9298 13.6868 46.2394 14.2287 45.6975C14.7706 45.1555 15.4611 44.7865 16.2128 44.637C16.9645 44.4874 17.7436 44.5642 18.4516 44.8575C19.1597 45.1508 19.7649 45.6474 20.1907 46.2847C20.6165 46.9219 20.8438 47.6711 20.8438 48.4375C20.8426 49.4649 20.434 50.4498 19.7075 51.1763C18.9811 51.9027 17.9961 52.3113 16.9688 52.3125ZM16.9688 42.625C15.5957 42.6269 14.2676 43.114 13.219 44.0004C12.1705 44.8867 11.4689 46.1152 11.2385 47.4688H5.34375V38.75H37.3125V47.4688H22.699C22.4686 46.1152 21.767 44.8867 20.7185 44.0004C19.6699 43.114 18.3418 42.6269 16.9688 42.625ZM49.9062 52.3125C49.1398 52.3125 48.3907 52.0852 47.7534 51.6594C47.1162 51.2337 46.6195 50.6285 46.3262 49.9204C46.0329 49.2123 45.9562 48.4332 46.1057 47.6815C46.2552 46.9298 46.6243 46.2394 47.1662 45.6975C47.7081 45.1555 48.3986 44.7865 49.1503 44.637C49.902 44.4874 50.6811 44.5642 51.3891 44.8575C52.0972 45.1508 52.7024 45.6474 53.1282 46.2847C53.554 46.9219 53.7812 47.6711 53.7812 48.4375C53.7801 49.4649 53.3715 50.4498 52.645 51.1763C51.9186 51.9027 50.9336 52.3113 49.9062 52.3125ZM57.6562 37.0868V47.4688H55.6365C55.4079 46.1144 54.7069 44.8848 53.658 43.998C52.609 43.1113 51.2799 42.6248 49.9063 42.6248C48.5328 42.6248 47.2036 43.1113 46.1547 43.998C45.1057 44.8848 44.4047 46.1144 44.1761 47.4688H39.25V25.1875H50.3337L57.6562 37.0868ZM37.3125 9.6875V36.8125H5.34375V9.6875H37.3125Z" fill="#027CB7"/>
<path d="M41.1875 33.9062H51.8437C52.0089 33.9062 52.1713 33.864 52.3155 33.7836C52.4597 33.7032 52.581 33.5872 52.6678 33.4468C52.7546 33.3063 52.8041 33.146 52.8115 32.981C52.8189 32.816 52.784 32.6519 52.7102 32.5042L49.8039 26.6917C49.7235 26.5308 49.5998 26.3955 49.4468 26.3009C49.2937 26.2064 49.1174 26.1563 48.9375 26.1562H41.1875C40.9306 26.1562 40.6842 26.2583 40.5025 26.44C40.3208 26.6217 40.2188 26.8681 40.2188 27.125V32.9375C40.2188 33.1944 40.3208 33.4408 40.5025 33.6225C40.6842 33.8042 40.9306 33.9062 41.1875 33.9062ZM42.1562 28.0938H48.3388L50.2763 31.9688H42.1562V28.0938Z" fill="#027CB7"/>
<path d="M10.781 22.2813H11.1577V32.4247C11.1546 33.0706 11.4079 33.6913 11.862 34.1506C12.316 34.61 12.9337 34.8705 13.5796 34.875H28.1108C28.7567 34.8705 29.3744 34.61 29.8284 34.1506C30.2824 33.6913 30.5357 33.0706 30.5327 32.4247V22.2813H30.9094C31.2369 22.2815 31.5562 22.1785 31.8219 21.9871C32.0877 21.7957 32.2864 21.5255 32.39 21.2148C32.4936 20.904 32.4967 20.5686 32.3989 20.256C32.3012 19.9434 32.1075 19.6696 31.8453 19.4732L21.7809 11.9366C21.5102 11.7356 21.1821 11.6271 20.8449 11.6271C20.5078 11.6271 20.1797 11.7356 19.909 11.9366L9.84478 19.4732C9.58262 19.6696 9.38893 19.9435 9.29118 20.2561C9.19342 20.5687 9.19656 20.9041 9.30016 21.2149C9.40375 21.5256 9.60253 21.7958 9.86832 21.9872C10.1341 22.1786 10.4534 22.2815 10.781 22.2813ZM22.7827 32.9375H18.9077V28.0938H22.7827V32.9375ZM28.5952 32.4247C28.5987 32.5568 28.5497 32.685 28.4589 32.7811C28.3681 32.8772 28.243 32.9335 28.1108 32.9375H24.7202V28.0938C24.7196 27.5801 24.5153 27.0876 24.1521 26.7244C23.7888 26.3611 23.2964 26.1568 22.7827 26.1563H18.9077C18.394 26.1568 17.9015 26.3611 17.5383 26.7244C17.1751 27.0876 16.9708 27.5801 16.9702 28.0938V32.9375H13.5796C13.4474 32.9335 13.3223 32.8772 13.2315 32.7811C13.1407 32.685 13.0917 32.5568 13.0952 32.4247V22.2813H28.5952V32.4247ZM20.8452 13.6564L29.7754 20.3438H11.9146L20.8452 13.6564Z" fill="#027CB7"/>
</svg>
